# WaveFront *.obj file (generated by Autodesk ATF)

mtllib Bed.mtl

g Bed

v 52.500000 16.000000 0.000000
v 72.500000 16.000000 0.000000
v 72.500000 16.000000 -0.200000
v 52.500000 16.000000 -0.200000
v 46.500000 10.000000 0.000000
v 46.561071 10.853889 0.000000
v 46.743042 11.690395 0.000000
v 47.042208 12.492490 0.000000
v 47.452479 13.243845 0.000000
v 47.965503 13.929164 0.000000
v 48.570836 14.534497 0.000000
v 49.256155 15.047521 0.000000
v 50.007510 15.457792 0.000000
v 50.809605 15.756958 0.000000
v 51.646111 15.938929 0.000000
v 51.646111 15.938929 -0.200000
v 50.809605 15.756958 -0.200000
v 50.007510 15.457792 -0.200000
v 49.256155 15.047521 -0.200000
v 48.570836 14.534497 -0.200000
v 47.965503 13.929164 -0.200000
v 47.452479 13.243845 -0.200000
v 47.042208 12.492490 -0.200000
v 46.743042 11.690395 -0.200000
v 46.561071 10.853889 -0.200000
v 46.500000 10.000000 -0.200000
v 46.500000 -10.000000 0.000000
v 46.500000 -10.000000 -0.200000
v 52.500000 -16.000000 0.000000
v 51.646111 -15.938929 0.000000
v 50.809605 -15.756958 0.000000
v 50.007510 -15.457792 0.000000
v 49.256155 -15.047521 0.000000
v 48.570836 -14.534497 0.000000
v 47.965503 -13.929164 0.000000
v 47.452479 -13.243845 0.000000
v 47.042208 -12.492490 0.000000
v 46.743042 -11.690395 0.000000
v 46.561071 -10.853889 0.000000
v 46.561071 -10.853889 -0.200000
v 46.743042 -11.690395 -0.200000
v 47.042208 -12.492490 -0.200000
v 47.452479 -13.243845 -0.200000
v 47.965503 -13.929164 -0.200000
v 48.570836 -14.534497 -0.200000
v 49.256155 -15.047521 -0.200000
v 50.007510 -15.457792 -0.200000
v 50.809605 -15.756958 -0.200000
v 51.646111 -15.938929 -0.200000
v 52.500000 -16.000000 -0.200000
v 72.500000 -16.000000 0.000000
v 72.500000 -16.000000 -0.200000
v 78.500000 -10.000000 0.000000
v 78.438929 -10.853889 0.000000
v 78.256958 -11.690395 0.000000
v 77.957792 -12.492490 0.000000
v 77.547521 -13.243845 0.000000
v 77.034497 -13.929164 0.000000
v 76.429164 -14.534497 0.000000
v 75.743845 -15.047521 0.000000
v 74.992490 -15.457792 0.000000
v 74.190395 -15.756958 0.000000
v 73.353889 -15.938929 0.000000
v 73.353889 -15.938929 -0.200000
v 74.190395 -15.756958 -0.200000
v 74.992490 -15.457792 -0.200000
v 75.743845 -15.047521 -0.200000
v 76.429164 -14.534497 -0.200000
v 77.034497 -13.929164 -0.200000
v 77.547521 -13.243845 -0.200000
v 77.957792 -12.492490 -0.200000
v 78.256958 -11.690395 -0.200000
v 78.438929 -10.853889 -0.200000
v 78.500000 -10.000000 -0.200000
v 78.500000 10.000000 0.000000
v 78.500000 10.000000 -0.200000
v 73.353889 15.938929 0.000000
v 74.190395 15.756958 0.000000
v 74.992490 15.457792 0.000000
v 75.743845 15.047521 0.000000
v 76.429164 14.534497 0.000000
v 77.034497 13.929164 0.000000
v 77.547521 13.243845 0.000000
v 77.957792 12.492490 0.000000
v 78.256958 11.690395 0.000000
v 78.438929 10.853889 0.000000
v 78.438929 10.853889 -0.200000
v 78.256958 11.690395 -0.200000
v 77.957792 12.492490 -0.200000
v 77.547521 13.243845 -0.200000
v 77.034497 13.929164 -0.200000
v 76.429164 14.534497 -0.200000
v 75.743845 15.047521 -0.200000
v 74.992490 15.457792 -0.200000
v 74.190395 15.756958 -0.200000
v 73.353889 15.938929 -0.200000
vt 0.000000 0.000000 0.000000
vt 20.000000 0.000000 0.000000
vt 0.000000 0.200000 0.000000
vt 20.000000 0.200000 0.000000
vt -0.200000 -9.424778 0.000000
vt -0.000000 -9.424778 0.000000
vt -0.200000 -8.567980 0.000000
vt -0.000000 -8.567980 0.000000
vt -0.200000 -7.711182 0.000000
vt -0.000000 -7.711182 0.000000
vt -0.200000 -6.854384 0.000000
vt -0.000000 -6.854384 0.000000
vt -0.200000 -5.997586 0.000000
vt -0.000000 -5.997586 0.000000
vt -0.200000 -5.140788 0.000000
vt -0.000000 -5.140788 0.000000
vt -0.200000 -4.283990 0.000000
vt -0.000000 -4.283990 0.000000
vt -0.200000 -3.427192 0.000000
vt -0.000000 -3.427192 0.000000
vt -0.200000 -2.570394 0.000000
vt -0.000000 -2.570394 0.000000
vt -0.200000 -1.713596 0.000000
vt -0.000000 -1.713596 0.000000
vt -0.200000 -0.856798 0.000000
vt -0.000000 -0.856798 0.000000
vt -0.200000 0.000000 0.000000
vt -0.000000 0.000000 0.000000
vt 0.000000 0.000000 0.000000
vt 20.000000 0.000000 0.000000
vt 0.000000 0.200000 0.000000
vt 20.000000 0.200000 0.000000
vt -0.200000 -9.424778 0.000000
vt -0.000000 -9.424778 0.000000
vt -0.200000 -8.567980 0.000000
vt 0.000000 -8.567980 0.000000
vt -0.200000 -7.711182 0.000000
vt 0.000000 -7.711182 0.000000
vt -0.200000 -6.854384 0.000000
vt 0.000000 -6.854384 0.000000
vt -0.200000 -5.997586 0.000000
vt 0.000000 -5.997586 0.000000
vt -0.200000 -5.140788 0.000000
vt -0.000000 -5.140788 0.000000
vt -0.200000 -4.283990 0.000000
vt 0.000000 -4.283990 0.000000
vt -0.200000 -3.427192 0.000000
vt -0.000000 -3.427192 0.000000
vt -0.200000 -2.570394 0.000000
vt -0.000000 -2.570394 0.000000
vt -0.200000 -1.713596 0.000000
vt 0.000000 -1.713596 0.000000
vt -0.200000 -0.856798 0.000000
vt 0.000000 -0.856798 0.000000
vt -0.200000 0.000000 0.000000
vt -0.000000 0.000000 0.000000
vt -0.000000 0.000000 0.000000
vt 20.000000 0.000000 0.000000
vt 0.000000 0.200000 0.000000
vt 20.000000 0.200000 0.000000
vt -0.200000 -9.424778 0.000000
vt -0.000000 -9.424778 0.000000
vt -0.200000 -8.567980 0.000000
vt -0.000000 -8.567980 0.000000
vt -0.200000 -7.711182 0.000000
vt -0.000000 -7.711182 0.000000
vt -0.200000 -6.854384 0.000000
vt -0.000000 -6.854384 0.000000
vt -0.200000 -5.997586 0.000000
vt -0.000000 -5.997586 0.000000
vt -0.200000 -5.140788 0.000000
vt -0.000000 -5.140788 0.000000
vt -0.200000 -4.283990 0.000000
vt -0.000000 -4.283990 0.000000
vt -0.200000 -3.427192 0.000000
vt -0.000000 -3.427192 0.000000
vt -0.200000 -2.570394 0.000000
vt -0.000000 -2.570394 0.000000
vt -0.200000 -1.713596 0.000000
vt -0.000000 -1.713596 0.000000
vt -0.200000 -0.856798 0.000000
vt -0.000000 -0.856798 0.000000
vt -0.200000 0.000000 0.000000
vt -0.000000 0.000000 0.000000
vt -0.000000 0.000000 0.000000
vt 20.000000 0.000000 0.000000
vt 0.000000 0.200000 0.000000
vt 20.000000 0.200000 0.000000
vt -0.200000 -9.424778 0.000000
vt -0.000000 -9.424778 0.000000
vt -0.200000 -8.567980 0.000000
vt -0.000000 -8.567980 0.000000
vt -0.200000 -7.711182 0.000000
vt -0.000000 -7.711182 0.000000
vt -0.200000 -6.854384 0.000000
vt -0.000000 -6.854384 0.000000
vt -0.200000 -5.997586 0.000000
vt -0.000000 -5.997586 0.000000
vt -0.200000 -5.140788 0.000000
vt -0.000000 -5.140788 0.000000
vt -0.200000 -4.283990 0.000000
vt -0.000000 -4.283990 0.000000
vt -0.200000 -3.427192 0.000000
vt -0.000000 -3.427192 0.000000
vt -0.200000 -2.570394 0.000000
vt -0.000000 -2.570394 0.000000
vt -0.200000 -1.713596 0.000000
vt -0.000000 -1.713596 0.000000
vt -0.200000 -0.856798 0.000000
vt -0.000000 -0.856798 0.000000
vt -0.200000 0.000000 0.000000
vt -0.000000 0.000000 0.000000
vt 15.938929 10.853889 0.000000
vt 10.000000 16.000000 0.000000
vt 16.000000 10.000000 0.000000
vt -10.000000 16.000000 0.000000
vt 16.000000 -10.000000 0.000000
vt -16.000000 10.000000 0.000000
vt 10.000000 -16.000000 0.000000
vt -16.000000 -10.000000 0.000000
vt -10.000000 -16.000000 0.000000
vt -10.853889 -15.938929 0.000000
vt -11.690395 -15.756958 0.000000
vt -12.492490 -15.457792 0.000000
vt -13.243845 -15.047521 0.000000
vt -13.929164 -14.534497 0.000000
vt -14.534497 -13.929164 0.000000
vt -15.047521 -13.243845 0.000000
vt -15.457792 -12.492490 0.000000
vt -15.756958 -11.690395 0.000000
vt -15.938929 -10.853889 0.000000
vt 15.756958 11.690395 0.000000
vt 15.457792 12.492490 0.000000
vt 15.047521 13.243845 0.000000
vt 14.534497 13.929164 0.000000
vt 13.929164 14.534497 0.000000
vt 13.243845 15.047521 0.000000
vt 12.492490 15.457792 0.000000
vt 11.690395 15.756958 0.000000
vt 10.853889 15.938929 0.000000
vt -10.853889 15.938929 0.000000
vt -11.690395 15.756958 0.000000
vt -12.492490 15.457792 0.000000
vt -13.243845 15.047521 0.000000
vt -13.929164 14.534497 0.000000
vt -14.534497 13.929164 0.000000
vt -15.047521 13.243845 0.000000
vt -15.457792 12.492490 0.000000
vt -15.756958 11.690395 0.000000
vt -15.938929 10.853889 0.000000
vt 10.853889 -15.938929 0.000000
vt 11.690395 -15.756958 0.000000
vt 12.492490 -15.457792 0.000000
vt 13.243845 -15.047521 0.000000
vt 13.929164 -14.534497 0.000000
vt 14.534497 -13.929164 0.000000
vt 15.047521 -13.243845 0.000000
vt 15.457792 -12.492490 0.000000
vt 15.756958 -11.690395 0.000000
vt 15.938929 -10.853889 0.000000
vt -10.853889 15.938929 0.000000
vt -11.690395 15.756958 0.000000
vt -10.000000 16.000000 0.000000
vt -12.492490 15.457792 0.000000
vt -13.243845 15.047521 0.000000
vt -13.929164 14.534497 0.000000
vt -14.534497 13.929164 0.000000
vt -15.047521 13.243845 0.000000
vt -15.457792 12.492490 0.000000
vt -15.756958 11.690395 0.000000
vt -15.938929 10.853889 0.000000
vt -16.000000 10.000000 0.000000
vt 16.000000 -10.000000 0.000000
vt 16.000000 10.000000 0.000000
vt 10.000000 -16.000000 0.000000
vt -16.000000 -10.000000 0.000000
vt -10.000000 -16.000000 0.000000
vt -10.853889 -15.938929 0.000000
vt -11.690395 -15.756958 0.000000
vt -12.492490 -15.457792 0.000000
vt -13.243845 -15.047521 0.000000
vt -13.929164 -14.534497 0.000000
vt -14.534497 -13.929164 0.000000
vt -15.047521 -13.243845 0.000000
vt -15.457792 -12.492490 0.000000
vt -15.756958 -11.690395 0.000000
vt -15.938929 -10.853889 0.000000
vt 10.853889 -15.938929 0.000000
vt 11.690395 -15.756958 0.000000
vt 12.492490 -15.457792 0.000000
vt 13.243845 -15.047521 0.000000
vt 13.929164 -14.534497 0.000000
vt 14.534497 -13.929164 0.000000
vt 15.047521 -13.243845 0.000000
vt 15.457792 -12.492490 0.000000
vt 15.756958 -11.690395 0.000000
vt 15.938929 -10.853889 0.000000
vt 10.000000 16.000000 0.000000
vt 15.938929 10.853889 0.000000
vt 15.756958 11.690395 0.000000
vt 15.457792 12.492490 0.000000
vt 15.047521 13.243845 0.000000
vt 14.534497 13.929164 0.000000
vt 13.929164 14.534497 0.000000
vt 13.243845 15.047521 0.000000
vt 12.492490 15.457792 0.000000
vt 11.690395 15.756958 0.000000
vt 10.853889 15.938929 0.000000
vn 0.000000 1.000000 0.000000
vn 0.000000 1.000000 0.000000
vn 0.000000 1.000000 0.000000
vn 0.000000 1.000000 0.000000
vn -1.000000 0.000000 -0.000000
vn -1.000000 0.000000 -0.000000
vn -0.989821 0.142315 -0.000000
vn -0.989821 0.142315 -0.000000
vn -0.959493 0.281733 -0.000000
vn -0.959493 0.281733 -0.000000
vn -0.909632 0.415415 -0.000000
vn -0.909632 0.415415 -0.000000
vn -0.841254 0.540641 -0.000000
vn -0.841254 0.540641 -0.000000
vn -0.755750 0.654861 -0.000000
vn -0.755750 0.654861 -0.000000
vn -0.654861 0.755750 -0.000000
vn -0.654861 0.755750 -0.000000
vn -0.540641 0.841254 -0.000000
vn -0.540641 0.841254 -0.000000
vn -0.415415 0.909632 -0.000000
vn -0.415415 0.909632 -0.000000
vn -0.281733 0.959493 -0.000000
vn -0.281733 0.959493 -0.000000
vn -0.142315 0.989821 -0.000000
vn -0.142315 0.989821 -0.000000
vn -1.000000 -0.000000 -0.000000
vn -1.000000 -0.000000 -0.000000
vn -0.000000 -1.000000 -0.000000
vn -0.000000 -1.000000 -0.000000
vn -0.142315 -0.989821 -0.000000
vn -0.142315 -0.989821 -0.000000
vn -0.281733 -0.959493 -0.000000
vn -0.281733 -0.959493 -0.000000
vn -0.415415 -0.909632 -0.000000
vn -0.415415 -0.909632 -0.000000
vn -0.540641 -0.841254 -0.000000
vn -0.540641 -0.841254 -0.000000
vn -0.654861 -0.755750 -0.000000
vn -0.654861 -0.755750 -0.000000
vn -0.755750 -0.654861 -0.000000
vn -0.755750 -0.654861 -0.000000
vn -0.841254 -0.540641 -0.000000
vn -0.841254 -0.540641 -0.000000
vn -0.909632 -0.415415 -0.000000
vn -0.909632 -0.415415 -0.000000
vn -0.959493 -0.281733 -0.000000
vn -0.959493 -0.281733 -0.000000
vn -0.989821 -0.142315 -0.000000
vn -0.989821 -0.142315 -0.000000
vn 0.000000 -1.000000 0.000000
vn 0.000000 -1.000000 0.000000
vn 1.000000 -0.000000 -0.000000
vn 1.000000 -0.000000 -0.000000
vn 0.989821 -0.142315 -0.000000
vn 0.989821 -0.142315 -0.000000
vn 0.959493 -0.281733 -0.000000
vn 0.959493 -0.281733 -0.000000
vn 0.909632 -0.415415 -0.000000
vn 0.909632 -0.415415 -0.000000
vn 0.841254 -0.540641 -0.000000
vn 0.841254 -0.540641 -0.000000
vn 0.755750 -0.654861 -0.000000
vn 0.755750 -0.654861 -0.000000
vn 0.654861 -0.755750 -0.000000
vn 0.654861 -0.755750 -0.000000
vn 0.540641 -0.841254 -0.000000
vn 0.540641 -0.841254 -0.000000
vn 0.415415 -0.909632 -0.000000
vn 0.415415 -0.909632 -0.000000
vn 0.281733 -0.959493 -0.000000
vn 0.281733 -0.959493 -0.000000
vn 0.142315 -0.989821 -0.000000
vn 0.142315 -0.989821 -0.000000
vn 1.000000 -0.000000 0.000000
vn 1.000000 -0.000000 0.000000
vn 0.142315 0.989821 0.000000
vn 0.142315 0.989821 0.000000
vn 0.281733 0.959493 0.000000
vn 0.281733 0.959493 0.000000
vn 0.415415 0.909632 0.000000
vn 0.415415 0.909632 0.000000
vn 0.540641 0.841254 0.000000
vn 0.540641 0.841254 0.000000
vn 0.654861 0.755750 0.000000
vn 0.654861 0.755750 0.000000
vn 0.755750 0.654861 0.000000
vn 0.755750 0.654861 0.000000
vn 0.841254 0.540641 0.000000
vn 0.841254 0.540641 0.000000
vn 0.909632 0.415415 0.000000
vn 0.909632 0.415415 0.000000
vn 0.959493 0.281733 0.000000
vn 0.959493 0.281733 0.000000
vn 0.989821 0.142315 0.000000
vn 0.989821 0.142315 0.000000
vn 0.000000 -0.000000 1.000000
vn 0.000000 -0.000000 1.000000
vn 0.000000 -0.000000 1.000000
vn 0.000000 -0.000000 1.000000
vn 0.000000 -0.000000 1.000000
vn 0.000000 -0.000000 1.000000
vn 0.000000 -0.000000 1.000000
vn 0.000000 -0.000000 1.000000
vn 0.000000 -0.000000 1.000000
vn 0.000000 -0.000000 1.000000
vn 0.000000 -0.000000 1.000000
vn 0.000000 -0.000000 1.000000
vn 0.000000 -0.000000 1.000000
vn 0.000000 -0.000000 1.000000
vn 0.000000 -0.000000 1.000000
vn 0.000000 -0.000000 1.000000
vn 0.000000 -0.000000 1.000000
vn 0.000000 -0.000000 1.000000
vn 0.000000 -0.000000 1.000000
vn 0.000000 -0.000000 1.000000
vn 0.000000 -0.000000 1.000000
vn 0.000000 -0.000000 1.000000
vn 0.000000 -0.000000 1.000000
vn 0.000000 -0.000000 1.000000
vn 0.000000 -0.000000 1.000000
vn 0.000000 -0.000000 1.000000
vn 0.000000 -0.000000 1.000000
vn 0.000000 -0.000000 1.000000
vn 0.000000 -0.000000 1.000000
vn 0.000000 -0.000000 1.000000
vn 0.000000 -0.000000 1.000000
vn 0.000000 -0.000000 1.000000
vn 0.000000 -0.000000 1.000000
vn 0.000000 -0.000000 1.000000
vn 0.000000 -0.000000 1.000000
vn 0.000000 -0.000000 1.000000
vn 0.000000 -0.000000 1.000000
vn 0.000000 -0.000000 1.000000
vn 0.000000 -0.000000 1.000000
vn 0.000000 -0.000000 1.000000
vn 0.000000 -0.000000 1.000000
vn 0.000000 -0.000000 1.000000
vn 0.000000 -0.000000 1.000000
vn 0.000000 -0.000000 1.000000
vn 0.000000 -0.000000 1.000000
vn 0.000000 -0.000000 1.000000
vn 0.000000 -0.000000 1.000000
vn 0.000000 -0.000000 1.000000
vn -0.000000 -0.000000 -1.000000
vn -0.000000 -0.000000 -1.000000
vn -0.000000 -0.000000 -1.000000
vn -0.000000 -0.000000 -1.000000
vn -0.000000 -0.000000 -1.000000
vn -0.000000 -0.000000 -1.000000
vn -0.000000 -0.000000 -1.000000
vn -0.000000 -0.000000 -1.000000
vn -0.000000 -0.000000 -1.000000
vn -0.000000 -0.000000 -1.000000
vn -0.000000 -0.000000 -1.000000
vn -0.000000 -0.000000 -1.000000
vn -0.000000 -0.000000 -1.000000
vn -0.000000 -0.000000 -1.000000
vn -0.000000 -0.000000 -1.000000
vn -0.000000 -0.000000 -1.000000
vn -0.000000 -0.000000 -1.000000
vn -0.000000 -0.000000 -1.000000
vn -0.000000 -0.000000 -1.000000
vn -0.000000 -0.000000 -1.000000
vn -0.000000 -0.000000 -1.000000
vn -0.000000 -0.000000 -1.000000
vn -0.000000 -0.000000 -1.000000
vn -0.000000 -0.000000 -1.000000
vn -0.000000 -0.000000 -1.000000
vn -0.000000 -0.000000 -1.000000
vn -0.000000 -0.000000 -1.000000
vn -0.000000 -0.000000 -1.000000
vn -0.000000 -0.000000 -1.000000
vn -0.000000 -0.000000 -1.000000
vn -0.000000 -0.000000 -1.000000
vn -0.000000 -0.000000 -1.000000
vn -0.000000 -0.000000 -1.000000
vn -0.000000 -0.000000 -1.000000
vn -0.000000 -0.000000 -1.000000
vn -0.000000 -0.000000 -1.000000
vn -0.000000 -0.000000 -1.000000
vn -0.000000 -0.000000 -1.000000
vn -0.000000 -0.000000 -1.000000
vn -0.000000 -0.000000 -1.000000
vn -0.000000 -0.000000 -1.000000
vn -0.000000 -0.000000 -1.000000
vn -0.000000 -0.000000 -1.000000
vn -0.000000 -0.000000 -1.000000
vn -0.000000 -0.000000 -1.000000
vn -0.000000 -0.000000 -1.000000
vn -0.000000 -0.000000 -1.000000
vn -0.000000 -0.000000 -1.000000
usemtl Steel_-_Satin
f 1/1/1 2/2/2 4/3/3
f 4/3/3 2/2/2 3/4/4
f 26/5/5 5/6/6 25/7/7
f 25/7/7 5/6/6 6/8/8
f 25/7/7 6/8/8 24/9/9
f 24/9/9 6/8/8 7/10/10
f 24/9/9 7/10/10 23/11/11
f 23/11/11 7/10/10 8/12/12
f 23/11/11 8/12/12 22/13/13
f 22/13/13 8/12/12 9/14/14
f 22/13/13 9/14/14 21/15/15
f 21/15/15 9/14/14 10/16/16
f 21/15/15 10/16/16 20/17/17
f 20/17/17 10/16/16 11/18/18
f 20/17/17 11/18/18 19/19/19
f 19/19/19 11/18/18 12/20/20
f 19/19/19 12/20/20 18/21/21
f 18/21/21 12/20/20 13/22/22
f 18/21/21 13/22/22 17/23/23
f 17/23/23 13/22/22 14/24/24
f 17/23/23 14/24/24 16/25/25
f 16/25/25 14/24/24 15/26/26
f 16/25/25 15/26/26 4/27/3
f 4/27/3 15/26/26 1/28/1
f 27/29/27 5/30/6 28/31/28
f 28/31/28 5/30/6 26/32/5
f 50/33/29 29/34/30 49/35/31
f 49/35/31 29/34/30 30/36/32
f 49/35/31 30/36/32 48/37/33
f 48/37/33 30/36/32 31/38/34
f 48/37/33 31/38/34 47/39/35
f 47/39/35 31/38/34 32/40/36
f 47/39/35 32/40/36 46/41/37
f 46/41/37 32/40/36 33/42/38
f 46/41/37 33/42/38 45/43/39
f 45/43/39 33/42/38 34/44/40
f 45/43/39 34/44/40 44/45/41
f 44/45/41 34/44/40 35/46/42
f 44/45/41 35/46/42 43/47/43
f 43/47/43 35/46/42 36/48/44
f 43/47/43 36/48/44 42/49/45
f 42/49/45 36/48/44 37/50/46
f 42/49/45 37/50/46 41/51/47
f 41/51/47 37/50/46 38/52/48
f 41/51/47 38/52/48 40/53/49
f 40/53/49 38/52/48 39/54/50
f 40/53/49 39/54/50 28/55/28
f 28/55/28 39/54/50 27/56/27
f 51/57/51 29/58/30 52/59/52
f 52/59/52 29/58/30 50/60/29
f 74/61/53 53/62/54 73/63/55
f 73/63/55 53/62/54 54/64/56
f 73/63/55 54/64/56 72/65/57
f 72/65/57 54/64/56 55/66/58
f 72/65/57 55/66/58 71/67/59
f 71/67/59 55/66/58 56/68/60
f 71/67/59 56/68/60 70/69/61
f 70/69/61 56/68/60 57/70/62
f 70/69/61 57/70/62 69/71/63
f 69/71/63 57/70/62 58/72/64
f 69/71/63 58/72/64 68/73/65
f 68/73/65 58/72/64 59/74/66
f 68/73/65 59/74/66 67/75/67
f 67/75/67 59/74/66 60/76/68
f 67/75/67 60/76/68 66/77/69
f 66/77/69 60/76/68 61/78/70
f 66/77/69 61/78/70 65/79/71
f 65/79/71 61/78/70 62/80/72
f 65/79/71 62/80/72 64/81/73
f 64/81/73 62/80/72 63/82/74
f 64/81/73 63/82/74 52/83/52
f 52/83/52 63/82/74 51/84/51
f 75/85/75 53/86/54 76/87/76
f 76/87/76 53/86/54 74/88/53
f 3/89/4 2/90/2 96/91/77
f 96/91/77 2/90/2 77/92/78
f 96/91/77 77/92/78 95/93/79
f 95/93/79 77/92/78 78/94/80
f 95/93/79 78/94/80 94/95/81
f 94/95/81 78/94/80 79/96/82
f 94/95/81 79/96/82 93/97/83
f 93/97/83 79/96/82 80/98/84
f 93/97/83 80/98/84 92/99/85
f 92/99/85 80/98/84 81/100/86
f 92/99/85 81/100/86 91/101/87
f 91/101/87 81/100/86 82/102/88
f 91/101/87 82/102/88 90/103/89
f 90/103/89 82/102/88 83/104/90
f 90/103/89 83/104/90 89/105/91
f 89/105/91 83/104/90 84/106/92
f 89/105/91 84/106/92 88/107/93
f 88/107/93 84/106/92 85/108/94
f 88/107/93 85/108/94 87/109/95
f 87/109/95 85/108/94 86/110/96
f 87/109/95 86/110/96 76/111/76
f 76/111/76 86/110/96 75/112/75
f 86/113/97 2/114/98 75/115/99
f 75/115/99 2/114/98 1/116/100
f 75/115/99 1/116/100 53/117/101
f 53/117/101 1/116/100 5/118/102
f 53/117/101 5/118/102 51/119/103
f 51/119/103 5/118/102 27/120/104
f 51/119/103 27/120/104 29/121/105
f 29/121/105 27/120/104 30/122/106
f 30/122/106 27/120/104 31/123/107
f 31/123/107 27/120/104 32/124/108
f 32/124/108 27/120/104 33/125/109
f 33/125/109 27/120/104 34/126/110
f 34/126/110 27/120/104 35/127/111
f 35/127/111 27/120/104 36/128/112
f 36/128/112 27/120/104 37/129/113
f 37/129/113 27/120/104 38/130/114
f 38/130/114 27/120/104 39/131/115
f 86/113/97 85/132/116 2/114/98
f 2/114/98 85/132/116 84/133/117
f 2/114/98 84/133/117 83/134/118
f 83/134/118 82/135/119 2/114/98
f 2/114/98 82/135/119 81/136/120
f 2/114/98 81/136/120 80/137/121
f 80/137/121 79/138/122 2/114/98
f 2/114/98 79/138/122 78/139/123
f 2/114/98 78/139/123 77/140/124
f 15/141/125 14/142/126 1/116/100
f 1/116/100 14/142/126 13/143/127
f 1/116/100 13/143/127 12/144/128
f 12/144/128 11/145/129 1/116/100
f 1/116/100 11/145/129 10/146/130
f 1/116/100 10/146/130 9/147/131
f 9/147/131 8/148/132 1/116/100
f 1/116/100 8/148/132 7/149/133
f 1/116/100 7/149/133 6/150/134
f 6/150/134 5/118/102 1/116/100
f 51/119/103 63/151/135 53/117/101
f 53/117/101 63/151/135 62/152/136
f 53/117/101 62/152/136 61/153/137
f 61/153/137 60/154/138 53/117/101
f 53/117/101 60/154/138 59/155/139
f 53/117/101 59/155/139 58/156/140
f 58/156/140 57/157/141 53/117/101
f 53/117/101 57/157/141 56/158/142
f 53/117/101 56/158/142 55/159/143
f 55/159/143 54/160/144 53/117/101
f 96/161/145 95/162/146 3/163/147
f 3/163/147 95/162/146 94/164/148
f 3/163/147 94/164/148 93/165/149
f 93/165/149 92/166/150 3/163/147
f 3/163/147 92/166/150 91/167/151
f 3/163/147 91/167/151 90/168/152
f 90/168/152 89/169/153 3/163/147
f 3/163/147 89/169/153 88/170/154
f 3/163/147 88/170/154 87/171/155
f 87/171/155 76/172/156 3/163/147
f 3/163/147 76/172/156 28/173/157
f 3/163/147 28/173/157 26/174/158
f 28/173/157 76/172/156 50/175/159
f 50/175/159 76/172/156 74/176/160
f 50/175/159 74/176/160 52/177/161
f 52/177/161 74/176/160 64/178/162
f 64/178/162 74/176/160 65/179/163
f 65/179/163 74/176/160 66/180/164
f 66/180/164 74/176/160 67/181/165
f 67/181/165 74/176/160 68/182/166
f 68/182/166 74/176/160 69/183/167
f 69/183/167 74/176/160 70/184/168
f 70/184/168 74/176/160 71/185/169
f 71/185/169 74/176/160 72/186/170
f 72/186/170 74/176/160 73/187/171
f 50/175/159 49/188/172 28/173/157
f 28/173/157 49/188/172 48/189/173
f 28/173/157 48/189/173 47/190/174
f 47/190/174 46/191/175 28/173/157
f 28/173/157 46/191/175 45/192/176
f 28/173/157 45/192/176 44/193/177
f 44/193/177 43/194/178 28/173/157
f 28/173/157 43/194/178 42/195/179
f 28/173/157 42/195/179 41/196/180
f 41/196/180 40/197/181 28/173/157
f 3/163/147 26/174/158 4/198/182
f 4/198/182 26/174/158 25/199/183
f 4/198/182 25/199/183 24/200/184
f 24/200/184 23/201/185 4/198/182
f 4/198/182 23/201/185 22/202/186
f 4/198/182 22/202/186 21/203/187
f 21/203/187 20/204/188 4/198/182
f 4/198/182 20/204/188 19/205/189
f 4/198/182 19/205/189 18/206/190
f 18/206/190 17/207/191 4/198/182
f 4/198/182 17/207/191 16/208/192
# 96 vertices
# 208 texture params
# 192 normals
# 188 facets

# 1 groups
