# WaveFront *.obj file (generated by Autodesk ATF)

mtllib Bed6.mtl

g Bed6

v 52.500000 16.000000 0.000000
v 102.500000 16.000000 0.000000
v 102.500000 16.000000 -0.200000
v 52.500000 16.000000 -0.200000
v 46.500000 10.000000 0.000000
v 46.615288 11.170542 0.000000
v 46.956723 12.296101 0.000000
v 47.511182 13.333421 0.000000
v 48.257359 14.242641 0.000000
v 49.166579 14.988818 0.000000
v 50.203899 15.543277 0.000000
v 51.329458 15.884712 0.000000
v 51.329458 15.884712 -0.200000
v 50.203899 15.543277 -0.200000
v 49.166579 14.988818 -0.200000
v 48.257359 14.242641 -0.200000
v 47.511182 13.333421 -0.200000
v 46.956723 12.296101 -0.200000
v 46.615288 11.170542 -0.200000
v 46.500000 10.000000 -0.200000
v 46.500000 -40.000000 0.000000
v 46.500000 -40.000000 -0.200000
v 52.500000 -46.000000 0.000000
v 51.329458 -45.884712 0.000000
v 50.203899 -45.543277 0.000000
v 49.166579 -44.988818 0.000000
v 48.257359 -44.242641 0.000000
v 47.511182 -43.333421 0.000000
v 46.956723 -42.296101 0.000000
v 46.615288 -41.170542 0.000000
v 46.615288 -41.170542 -0.200000
v 46.956723 -42.296101 -0.200000
v 47.511182 -43.333421 -0.200000
v 48.257359 -44.242641 -0.200000
v 49.166579 -44.988818 -0.200000
v 50.203899 -45.543277 -0.200000
v 51.329458 -45.884712 -0.200000
v 52.500000 -46.000000 -0.200000
v 102.500000 -46.000000 0.000000
v 102.500000 -46.000000 -0.200000
v 108.500000 -40.000000 0.000000
v 108.384712 -41.170542 0.000000
v 108.043277 -42.296101 0.000000
v 107.488818 -43.333421 0.000000
v 106.742641 -44.242641 0.000000
v 105.833421 -44.988818 0.000000
v 104.796101 -45.543277 0.000000
v 103.670542 -45.884712 0.000000
v 103.670542 -45.884712 -0.200000
v 104.796101 -45.543277 -0.200000
v 105.833421 -44.988818 -0.200000
v 106.742641 -44.242641 -0.200000
v 107.488818 -43.333421 -0.200000
v 108.043277 -42.296101 -0.200000
v 108.384712 -41.170542 -0.200000
v 108.500000 -40.000000 -0.200000
v 108.500000 10.000000 0.000000
v 108.500000 10.000000 -0.200000
v 103.670542 15.884712 0.000000
v 104.796101 15.543277 0.000000
v 105.833421 14.988818 0.000000
v 106.742641 14.242641 0.000000
v 107.488818 13.333421 0.000000
v 108.043277 12.296101 0.000000
v 108.384712 11.170542 0.000000
v 108.384712 11.170542 -0.200000
v 108.043277 12.296101 -0.200000
v 107.488818 13.333421 -0.200000
v 106.742641 14.242641 -0.200000
v 105.833421 14.988818 -0.200000
v 104.796101 15.543277 -0.200000
v 103.670542 15.884712 -0.200000
vt 0.000000 0.000000 0.000000
vt 50.000000 0.000000 0.000000
vt 0.000000 0.200000 0.000000
vt 50.000000 0.200000 0.000000
vt -0.200000 -9.424778 0.000000
vt -0.000000 -9.424778 0.000000
vt -0.200000 -8.246681 0.000000
vt -0.000000 -8.246681 0.000000
vt -0.200000 -7.068583 0.000000
vt -0.000000 -7.068583 0.000000
vt -0.200000 -5.890486 0.000000
vt -0.000000 -5.890486 0.000000
vt -0.200000 -4.712389 0.000000
vt -0.000000 -4.712389 0.000000
vt -0.200000 -3.534292 0.000000
vt -0.000000 -3.534292 0.000000
vt -0.200000 -2.356194 0.000000
vt -0.000000 -2.356194 0.000000
vt -0.200000 -1.178097 0.000000
vt -0.000000 -1.178097 0.000000
vt -0.200000 0.000000 0.000000
vt -0.000000 0.000000 0.000000
vt 0.000000 0.000000 0.000000
vt 50.000000 0.000000 0.000000
vt 0.000000 0.200000 0.000000
vt 50.000000 0.200000 0.000000
vt -0.200000 -9.424778 0.000000
vt -0.000000 -9.424778 0.000000
vt -0.200000 -8.246681 0.000000
vt 0.000000 -8.246681 0.000000
vt -0.200000 -7.068583 0.000000
vt 0.000000 -7.068583 0.000000
vt -0.200000 -5.890486 0.000000
vt 0.000000 -5.890486 0.000000
vt -0.200000 -4.712389 0.000000
vt 0.000000 -4.712389 0.000000
vt -0.200000 -3.534292 0.000000
vt 0.000000 -3.534292 0.000000
vt -0.200000 -2.356194 0.000000
vt 0.000000 -2.356194 0.000000
vt -0.200000 -1.178097 0.000000
vt 0.000000 -1.178097 0.000000
vt -0.200000 0.000000 0.000000
vt -0.000000 0.000000 0.000000
vt -0.000000 0.000000 0.000000
vt 50.000000 0.000000 0.000000
vt 0.000000 0.200000 0.000000
vt 50.000000 0.200000 0.000000
vt -0.200000 -9.424778 0.000000
vt -0.000000 -9.424778 0.000000
vt -0.200000 -8.246681 0.000000
vt -0.000000 -8.246681 0.000000
vt -0.200000 -7.068583 0.000000
vt -0.000000 -7.068583 0.000000
vt -0.200000 -5.890486 0.000000
vt -0.000000 -5.890486 0.000000
vt -0.200000 -4.712389 0.000000
vt -0.000000 -4.712389 0.000000
vt -0.200000 -3.534292 0.000000
vt -0.000000 -3.534292 0.000000
vt -0.200000 -2.356194 0.000000
vt -0.000000 -2.356194 0.000000
vt -0.200000 -1.178097 0.000000
vt -0.000000 -1.178097 0.000000
vt -0.200000 0.000000 0.000000
vt -0.000000 0.000000 0.000000
vt -0.000000 0.000000 0.000000
vt 50.000000 0.000000 0.000000
vt 0.000000 0.200000 0.000000
vt 50.000000 0.200000 0.000000
vt -0.200000 -9.424778 0.000000
vt -0.000000 -9.424778 0.000000
vt -0.200000 -8.246681 0.000000
vt -0.000000 -8.246681 0.000000
vt -0.200000 -7.068583 0.000000
vt -0.000000 -7.068583 0.000000
vt -0.200000 -5.890486 0.000000
vt -0.000000 -5.890486 0.000000
vt -0.200000 -4.712389 0.000000
vt -0.000000 -4.712389 0.000000
vt -0.200000 -3.534292 0.000000
vt -0.000000 -3.534292 0.000000
vt -0.200000 -2.356194 0.000000
vt -0.000000 -2.356194 0.000000
vt -0.200000 -1.178097 0.000000
vt -0.000000 -1.178097 0.000000
vt -0.200000 0.000000 0.000000
vt -0.000000 0.000000 0.000000
vt 30.884712 26.170542 0.000000
vt 25.000000 31.000000 0.000000
vt 31.000000 25.000000 0.000000
vt -25.000000 31.000000 0.000000
vt 31.000000 -25.000000 0.000000
vt -31.000000 25.000000 0.000000
vt 25.000000 -31.000000 0.000000
vt -31.000000 -25.000000 0.000000
vt -25.000000 -31.000000 0.000000
vt -26.170542 -30.884712 0.000000
vt -27.296101 -30.543277 0.000000
vt -28.333421 -29.988818 0.000000
vt -29.242641 -29.242641 0.000000
vt -29.988818 -28.333421 0.000000
vt -30.543277 -27.296101 0.000000
vt -30.884712 -26.170542 0.000000
vt 30.543277 27.296101 0.000000
vt 29.988818 28.333421 0.000000
vt 29.242641 29.242641 0.000000
vt 28.333421 29.988818 0.000000
vt 27.296101 30.543277 0.000000
vt 26.170542 30.884712 0.000000
vt -26.170542 30.884712 0.000000
vt -27.296101 30.543277 0.000000
vt -28.333421 29.988818 0.000000
vt -29.242641 29.242641 0.000000
vt -29.988818 28.333421 0.000000
vt -30.543277 27.296101 0.000000
vt -30.884712 26.170542 0.000000
vt 26.170542 -30.884712 0.000000
vt 27.296101 -30.543277 0.000000
vt 28.333421 -29.988818 0.000000
vt 29.242641 -29.242641 0.000000
vt 29.988818 -28.333421 0.000000
vt 30.543277 -27.296101 0.000000
vt 30.884712 -26.170542 0.000000
vt -26.170542 30.884712 0.000000
vt -27.296101 30.543277 0.000000
vt -25.000000 31.000000 0.000000
vt -28.333421 29.988818 0.000000
vt -29.242641 29.242641 0.000000
vt -29.988818 28.333421 0.000000
vt -30.543277 27.296101 0.000000
vt -30.884712 26.170542 0.000000
vt -31.000000 25.000000 0.000000
vt 31.000000 -25.000000 0.000000
vt 31.000000 25.000000 0.000000
vt 25.000000 -31.000000 0.000000
vt -31.000000 -25.000000 0.000000
vt -25.000000 -31.000000 0.000000
vt -26.170542 -30.884712 0.000000
vt -27.296101 -30.543277 0.000000
vt -28.333421 -29.988818 0.000000
vt -29.242641 -29.242641 0.000000
vt -29.988818 -28.333421 0.000000
vt -30.543277 -27.296101 0.000000
vt -30.884712 -26.170542 0.000000
vt 26.170542 -30.884712 0.000000
vt 27.296101 -30.543277 0.000000
vt 28.333421 -29.988818 0.000000
vt 29.242641 -29.242641 0.000000
vt 29.988818 -28.333421 0.000000
vt 30.543277 -27.296101 0.000000
vt 30.884712 -26.170542 0.000000
vt 25.000000 31.000000 0.000000
vt 30.884712 26.170542 0.000000
vt 30.543277 27.296101 0.000000
vt 29.988818 28.333421 0.000000
vt 29.242641 29.242641 0.000000
vt 28.333421 29.988818 0.000000
vt 27.296101 30.543277 0.000000
vt 26.170542 30.884712 0.000000
vn 0.000000 1.000000 0.000000
vn 0.000000 1.000000 0.000000
vn 0.000000 1.000000 0.000000
vn 0.000000 1.000000 0.000000
vn -1.000000 0.000000 -0.000000
vn -1.000000 0.000000 -0.000000
vn -0.980785 0.195090 -0.000000
vn -0.980785 0.195090 -0.000000
vn -0.923880 0.382683 -0.000000
vn -0.923880 0.382683 -0.000000
vn -0.831470 0.555570 -0.000000
vn -0.831470 0.555570 -0.000000
vn -0.707107 0.707107 -0.000000
vn -0.707107 0.707107 -0.000000
vn -0.555570 0.831470 -0.000000
vn -0.555570 0.831470 -0.000000
vn -0.382683 0.923880 -0.000000
vn -0.382683 0.923880 -0.000000
vn -0.195090 0.980785 -0.000000
vn -0.195090 0.980785 -0.000000
vn -1.000000 -0.000000 -0.000000
vn -1.000000 -0.000000 -0.000000
vn -0.000000 -1.000000 -0.000000
vn -0.000000 -1.000000 -0.000000
vn -0.195090 -0.980785 -0.000000
vn -0.195090 -0.980785 -0.000000
vn -0.382683 -0.923880 -0.000000
vn -0.382683 -0.923880 -0.000000
vn -0.555570 -0.831470 -0.000000
vn -0.555570 -0.831470 -0.000000
vn -0.707107 -0.707107 -0.000000
vn -0.707107 -0.707107 -0.000000
vn -0.831470 -0.555570 -0.000000
vn -0.831470 -0.555570 -0.000000
vn -0.923880 -0.382683 -0.000000
vn -0.923880 -0.382683 -0.000000
vn -0.980785 -0.195090 -0.000000
vn -0.980785 -0.195090 -0.000000
vn 0.000000 -1.000000 0.000000
vn 0.000000 -1.000000 0.000000
vn 1.000000 -0.000000 -0.000000
vn 1.000000 -0.000000 -0.000000
vn 0.980785 -0.195090 -0.000000
vn 0.980785 -0.195090 -0.000000
vn 0.923880 -0.382683 -0.000000
vn 0.923880 -0.382683 -0.000000
vn 0.831470 -0.555570 -0.000000
vn 0.831470 -0.555570 -0.000000
vn 0.707107 -0.707107 -0.000000
vn 0.707107 -0.707107 -0.000000
vn 0.555570 -0.831470 -0.000000
vn 0.555570 -0.831470 -0.000000
vn 0.382683 -0.923880 -0.000000
vn 0.382683 -0.923880 -0.000000
vn 0.195090 -0.980785 -0.000000
vn 0.195090 -0.980785 -0.000000
vn 1.000000 -0.000000 0.000000
vn 1.000000 -0.000000 0.000000
vn 0.195090 0.980785 0.000000
vn 0.195090 0.980785 0.000000
vn 0.382683 0.923880 0.000000
vn 0.382683 0.923880 0.000000
vn 0.555570 0.831470 0.000000
vn 0.555570 0.831470 0.000000
vn 0.707107 0.707107 0.000000
vn 0.707107 0.707107 0.000000
vn 0.831470 0.555570 0.000000
vn 0.831470 0.555570 0.000000
vn 0.923880 0.382683 0.000000
vn 0.923880 0.382683 0.000000
vn 0.980785 0.195090 0.000000
vn 0.980785 0.195090 0.000000
vn 0.000000 -0.000000 1.000000
vn 0.000000 -0.000000 1.000000
vn 0.000000 -0.000000 1.000000
vn 0.000000 -0.000000 1.000000
vn 0.000000 -0.000000 1.000000
vn 0.000000 -0.000000 1.000000
vn 0.000000 -0.000000 1.000000
vn 0.000000 -0.000000 1.000000
vn 0.000000 -0.000000 1.000000
vn 0.000000 -0.000000 1.000000
vn 0.000000 -0.000000 1.000000
vn 0.000000 -0.000000 1.000000
vn 0.000000 -0.000000 1.000000
vn 0.000000 -0.000000 1.000000
vn 0.000000 -0.000000 1.000000
vn 0.000000 -0.000000 1.000000
vn 0.000000 -0.000000 1.000000
vn 0.000000 -0.000000 1.000000
vn 0.000000 -0.000000 1.000000
vn 0.000000 -0.000000 1.000000
vn 0.000000 -0.000000 1.000000
vn 0.000000 -0.000000 1.000000
vn 0.000000 -0.000000 1.000000
vn 0.000000 -0.000000 1.000000
vn 0.000000 -0.000000 1.000000
vn 0.000000 -0.000000 1.000000
vn 0.000000 -0.000000 1.000000
vn 0.000000 -0.000000 1.000000
vn 0.000000 -0.000000 1.000000
vn 0.000000 -0.000000 1.000000
vn 0.000000 -0.000000 1.000000
vn 0.000000 -0.000000 1.000000
vn 0.000000 -0.000000 1.000000
vn 0.000000 -0.000000 1.000000
vn 0.000000 -0.000000 1.000000
vn 0.000000 -0.000000 1.000000
vn -0.000000 -0.000000 -1.000000
vn -0.000000 -0.000000 -1.000000
vn -0.000000 -0.000000 -1.000000
vn -0.000000 -0.000000 -1.000000
vn -0.000000 -0.000000 -1.000000
vn -0.000000 -0.000000 -1.000000
vn -0.000000 -0.000000 -1.000000
vn -0.000000 -0.000000 -1.000000
vn -0.000000 -0.000000 -1.000000
vn -0.000000 -0.000000 -1.000000
vn -0.000000 -0.000000 -1.000000
vn -0.000000 -0.000000 -1.000000
vn -0.000000 -0.000000 -1.000000
vn -0.000000 -0.000000 -1.000000
vn -0.000000 -0.000000 -1.000000
vn -0.000000 -0.000000 -1.000000
vn -0.000000 -0.000000 -1.000000
vn -0.000000 -0.000000 -1.000000
vn -0.000000 -0.000000 -1.000000
vn -0.000000 -0.000000 -1.000000
vn -0.000000 -0.000000 -1.000000
vn -0.000000 -0.000000 -1.000000
vn -0.000000 -0.000000 -1.000000
vn -0.000000 -0.000000 -1.000000
vn -0.000000 -0.000000 -1.000000
vn -0.000000 -0.000000 -1.000000
vn -0.000000 -0.000000 -1.000000
vn -0.000000 -0.000000 -1.000000
vn -0.000000 -0.000000 -1.000000
vn -0.000000 -0.000000 -1.000000
vn -0.000000 -0.000000 -1.000000
vn -0.000000 -0.000000 -1.000000
vn -0.000000 -0.000000 -1.000000
vn -0.000000 -0.000000 -1.000000
vn -0.000000 -0.000000 -1.000000
vn -0.000000 -0.000000 -1.000000
usemtl Steel_-_Satin
f 1/1/1 2/2/2 4/3/3
f 4/3/3 2/2/2 3/4/4
f 20/5/5 5/6/6 19/7/7
f 19/7/7 5/6/6 6/8/8
f 19/7/7 6/8/8 18/9/9
f 18/9/9 6/8/8 7/10/10
f 18/9/9 7/10/10 17/11/11
f 17/11/11 7/10/10 8/12/12
f 17/11/11 8/12/12 16/13/13
f 16/13/13 8/12/12 9/14/14
f 16/13/13 9/14/14 15/15/15
f 15/15/15 9/14/14 10/16/16
f 15/15/15 10/16/16 14/17/17
f 14/17/17 10/16/16 11/18/18
f 14/17/17 11/18/18 13/19/19
f 13/19/19 11/18/18 12/20/20
f 13/19/19 12/20/20 4/21/3
f 4/21/3 12/20/20 1/22/1
f 21/23/21 5/24/6 22/25/22
f 22/25/22 5/24/6 20/26/5
f 38/27/23 23/28/24 37/29/25
f 37/29/25 23/28/24 24/30/26
f 37/29/25 24/30/26 36/31/27
f 36/31/27 24/30/26 25/32/28
f 36/31/27 25/32/28 35/33/29
f 35/33/29 25/32/28 26/34/30
f 35/33/29 26/34/30 34/35/31
f 34/35/31 26/34/30 27/36/32
f 34/35/31 27/36/32 33/37/33
f 33/37/33 27/36/32 28/38/34
f 33/37/33 28/38/34 32/39/35
f 32/39/35 28/38/34 29/40/36
f 32/39/35 29/40/36 31/41/37
f 31/41/37 29/40/36 30/42/38
f 31/41/37 30/42/38 22/43/22
f 22/43/22 30/42/38 21/44/21
f 39/45/39 23/46/24 40/47/40
f 40/47/40 23/46/24 38/48/23
f 56/49/41 41/50/42 55/51/43
f 55/51/43 41/50/42 42/52/44
f 55/51/43 42/52/44 54/53/45
f 54/53/45 42/52/44 43/54/46
f 54/53/45 43/54/46 53/55/47
f 53/55/47 43/54/46 44/56/48
f 53/55/47 44/56/48 52/57/49
f 52/57/49 44/56/48 45/58/50
f 52/57/49 45/58/50 51/59/51
f 51/59/51 45/58/50 46/60/52
f 51/59/51 46/60/52 50/61/53
f 50/61/53 46/60/52 47/62/54
f 50/61/53 47/62/54 49/63/55
f 49/63/55 47/62/54 48/64/56
f 49/63/55 48/64/56 40/65/40
f 40/65/40 48/64/56 39/66/39
f 57/67/57 41/68/42 58/69/58
f 58/69/58 41/68/42 56/70/41
f 3/71/4 2/72/2 72/73/59
f 72/73/59 2/72/2 59/74/60
f 72/73/59 59/74/60 71/75/61
f 71/75/61 59/74/60 60/76/62
f 71/75/61 60/76/62 70/77/63
f 70/77/63 60/76/62 61/78/64
f 70/77/63 61/78/64 69/79/65
f 69/79/65 61/78/64 62/80/66
f 69/79/65 62/80/66 68/81/67
f 68/81/67 62/80/66 63/82/68
f 68/81/67 63/82/68 67/83/69
f 67/83/69 63/82/68 64/84/70
f 67/83/69 64/84/70 66/85/71
f 66/85/71 64/84/70 65/86/72
f 66/85/71 65/86/72 58/87/58
f 58/87/58 65/86/72 57/88/57
f 65/89/73 2/90/74 57/91/75
f 57/91/75 2/90/74 1/92/76
f 57/91/75 1/92/76 41/93/77
f 41/93/77 1/92/76 5/94/78
f 41/93/77 5/94/78 39/95/79
f 39/95/79 5/94/78 21/96/80
f 39/95/79 21/96/80 23/97/81
f 23/97/81 21/96/80 24/98/82
f 24/98/82 21/96/80 25/99/83
f 25/99/83 21/96/80 26/100/84
f 26/100/84 21/96/80 27/101/85
f 27/101/85 21/96/80 28/102/86
f 28/102/86 21/96/80 29/103/87
f 29/103/87 21/96/80 30/104/88
f 65/89/73 64/105/89 2/90/74
f 2/90/74 64/105/89 63/106/90
f 2/90/74 63/106/90 62/107/91
f 62/107/91 61/108/92 2/90/74
f 2/90/74 61/108/92 60/109/93
f 2/90/74 60/109/93 59/110/94
f 12/111/95 11/112/96 1/92/76
f 1/92/76 11/112/96 10/113/97
f 1/92/76 10/113/97 9/114/98
f 9/114/98 8/115/99 1/92/76
f 1/92/76 8/115/99 7/116/100
f 1/92/76 7/116/100 6/117/101
f 6/117/101 5/94/78 1/92/76
f 39/95/79 48/118/102 41/93/77
f 41/93/77 48/118/102 47/119/103
f 41/93/77 47/119/103 46/120/104
f 46/120/104 45/121/105 41/93/77
f 41/93/77 45/121/105 44/122/106
f 41/93/77 44/122/106 43/123/107
f 43/123/107 42/124/108 41/93/77
f 72/125/109 71/126/110 3/127/111
f 3/127/111 71/126/110 70/128/112
f 3/127/111 70/128/112 69/129/113
f 69/129/113 68/130/114 3/127/111
f 3/127/111 68/130/114 67/131/115
f 3/127/111 67/131/115 66/132/116
f 66/132/116 58/133/117 3/127/111
f 3/127/111 58/133/117 22/134/118
f 3/127/111 22/134/118 20/135/119
f 22/134/118 58/133/117 38/136/120
f 38/136/120 58/133/117 56/137/121
f 38/136/120 56/137/121 40/138/122
f 40/138/122 56/137/121 49/139/123
f 49/139/123 56/137/121 50/140/124
f 50/140/124 56/137/121 51/141/125
f 51/141/125 56/137/121 52/142/126
f 52/142/126 56/137/121 53/143/127
f 53/143/127 56/137/121 54/144/128
f 54/144/128 56/137/121 55/145/129
f 38/136/120 37/146/130 22/134/118
f 22/134/118 37/146/130 36/147/131
f 22/134/118 36/147/131 35/148/132
f 35/148/132 34/149/133 22/134/118
f 22/134/118 34/149/133 33/150/134
f 22/134/118 33/150/134 32/151/135
f 32/151/135 31/152/136 22/134/118
f 3/127/111 20/135/119 4/153/137
f 4/153/137 20/135/119 19/154/138
f 4/153/137 19/154/138 18/155/139
f 18/155/139 17/156/140 4/153/137
f 4/153/137 17/156/140 16/157/141
f 4/153/137 16/157/141 15/158/142
f 15/158/142 14/159/143 4/153/137
f 4/153/137 14/159/143 13/160/144
# 72 vertices
# 160 texture params
# 144 normals
# 140 facets

# 1 groups
