# WaveFront *.obj file (generated by Autodesk ATF)

mtllib StarterSideLeft.mtl

g StarterSideLeft

v -10.142186 12.514331 2.400000
v -10.142186 12.514331 4.400000
v -9.996318 12.729006 4.400000
v -9.823878 12.922983 4.400000
v -9.627770 13.092997 4.400000
v -9.411297 13.236183 4.400000
v -9.178105 13.350131 4.400000
v -8.932120 13.432921 4.400000
v -8.677485 13.483159 4.400000
v -8.418488 13.500000 4.400000
v -8.418488 13.500000 2.400000
v -8.677485 13.483159 2.400000
v -8.932120 13.432921 2.400000
v -9.178105 13.350131 2.400000
v -9.411297 13.236183 2.400000
v -9.627770 13.092997 2.400000
v -9.823878 12.922983 2.400000
v -9.996318 12.729006 2.400000
v -6.183362 13.500000 3.768430
v -4.183362 13.500000 3.136851
v -4.183362 13.500000 1.100000
v -6.183362 13.500000 1.100000
v -7.117033 12.514331 3.800000
v -6.283333 12.514331 3.800000
v -6.283333 13.497500 3.800000
v -6.531538 13.469460 3.800000
v -6.774312 13.410701 3.800000
v -7.007868 13.322138 3.800000
v -7.228564 13.205155 3.800000
v -7.432957 13.061574 3.800000
v -7.617858 12.893635 3.800000
v -7.117033 12.514331 4.063274
v -7.617858 12.893635 2.400000
v -8.183333 13.321903 4.400000
v -2.459664 12.514331 2.592526
v -2.605532 12.729006 2.638589
v -2.777972 12.922983 2.693044
v -2.974080 13.092997 2.754973
v -3.190553 13.236183 2.823332
v -3.423745 13.350131 2.896972
v -3.669730 13.432921 2.974652
v -3.924365 13.483159 3.055063
v -6.216698 13.499722 3.778957
v -6.250025 13.498889 3.789482
v -8.183333 12.514331 4.400000
v -1.225655 13.300000 2.200000
v -1.225655 13.300000 -0.000000
v -3.000000 13.300000 -0.000000
v -3.000000 13.300000 2.200000
v -2.459664 12.514331 2.200000
v -2.585023 12.702212 2.200000
v -2.730766 12.874761 2.200000
v -2.895036 13.029777 2.200000
v -3.075736 13.165282 2.200000
v -3.270562 13.279549 2.200000
v -3.270562 13.279549 1.100000
v -3.487321 13.374974 1.100000
v -3.713840 13.444106 1.100000
v -3.946943 13.485977 1.100000
v -7.907059 12.514331 2.400000
v -7.724242 12.775024 2.400000
v -7.820847 12.648322 2.400000
v -7.907059 12.514331 1.100000
v -6.442358 13.483159 1.100000
v -6.696993 13.432921 1.100000
v -6.942978 13.350131 1.100000
v -7.176170 13.236183 1.100000
v -7.392643 13.092997 1.100000
v -7.588751 12.922983 1.100000
v -7.761191 12.729006 1.100000
v -4.486988 12.514331 1.100000
v -3.510855 13.225986 1.100000
v -3.741591 13.140135 1.100000
v -3.958455 13.023603 1.100000
v -4.157389 12.878569 1.100000
v -4.334672 12.707746 1.100000
v -4.486988 12.514331 0.000000
v -3.180756 13.290901 2.200000
v -3.090492 13.297724 2.200000
v -3.249181 13.282669 -0.000000
v -3.493564 13.231010 -0.000000
v -3.728442 13.146017 -0.000000
v -3.949293 13.029328 -0.000000
v -4.151863 12.883189 -0.000000
v -4.332253 12.710414 -0.000000
v 0.163787 12.514331 0.000000
v 0.163787 12.514331 1.764067
v -1.216667 13.294917 2.200000
v -1.216667 12.514331 2.200000
vt -1.000000 -2.077807 0.000000
vt 1.000000 -2.077807 0.000000
vt -1.000000 -1.818082 0.000000
vt 1.000000 -1.818082 0.000000
vt -1.000000 -1.558356 0.000000
vt 1.000000 -1.558356 0.000000
vt -1.000000 -1.298630 0.000000
vt 1.000000 -1.298630 0.000000
vt -1.000000 -1.038904 0.000000
vt 1.000000 -1.038904 0.000000
vt -1.000000 -0.779178 0.000000
vt 1.000000 -0.779178 0.000000
vt -1.000000 -0.519452 0.000000
vt 1.000000 -0.519452 0.000000
vt -1.000000 -0.259726 0.000000
vt 1.000000 -0.259726 0.000000
vt -1.000000 0.000000 0.000000
vt 1.000000 0.000000 0.000000
vt 2.000000 1.568430 0.000000
vt 0.000000 0.936851 0.000000
vt 2.000000 -1.100000 0.000000
vt 0.000000 -1.100000 0.000000
vt 1.099972 0.381988 0.000000
vt 1.824507 -0.425820 0.000000
vt 1.933671 0.381988 0.000000
vt 2.045202 -0.308836 0.000000
vt 2.249595 -0.165255 0.000000
vt 1.099972 -0.601181 0.000000
vt 1.348176 -0.573142 0.000000
vt 1.590950 -0.514382 0.000000
vt 2.434497 0.002683 0.000000
vt 1.632584 -0.400000 0.000000
vt 1.004334 -0.400000 0.000000
vt 1.632584 -0.663274 0.000000
vt 0.294985 -1.000000 0.000000
vt 0.000000 1.000000 0.000000
vt 0.000000 -1.000000 0.000000
vt 1.004334 1.000000 0.000000
vt -3.628069 12.514331 0.000000
vt -3.781038 12.729006 0.000000
vt -7.637863 12.514331 0.000000
vt -3.961872 12.922983 0.000000
vt -4.167525 13.092997 0.000000
vt -4.394535 13.236183 0.000000
vt -5.435671 13.500000 0.000000
vt -7.533025 13.500000 0.000000
vt -4.639079 13.350131 0.000000
vt -4.897038 13.432921 0.000000
vt -5.164067 13.483159 0.000000
vt -7.567984 13.499722 0.000000
vt -7.602933 13.498889 0.000000
vt -7.637863 13.497500 0.000000
vt -9.630348 12.514331 0.000000
vt -8.512144 12.514331 0.000000
vt -9.630348 13.321903 0.000000
vt 1.774345 1.200000 0.000000
vt -0.000000 1.200000 0.000000
vt 1.774345 -1.000000 0.000000
vt -0.000000 -1.000000 0.000000
vt -0.000000 1.063785 0.000000
vt -0.000000 1.289769 0.000000
vt -0.392526 1.063785 0.000000
vt -0.438589 1.323511 0.000000
vt -0.000000 1.515752 0.000000
vt -0.493044 1.583237 0.000000
vt -0.000000 1.741736 0.000000
vt -0.554973 1.842963 0.000000
vt -0.000000 1.967719 0.000000
vt -0.623332 2.102689 0.000000
vt -0.000000 2.193703 0.000000
vt -0.696972 2.362415 0.000000
vt 1.100000 2.193703 0.000000
vt 1.100000 2.430675 0.000000
vt -0.774652 2.622141 0.000000
vt 1.100000 2.667648 0.000000
vt -0.855063 2.881867 0.000000
vt 1.100000 2.904620 0.000000
vt -0.936851 3.141593 0.000000
vt 1.100000 3.141593 0.000000
vt 2.223698 12.514331 0.000000
vt 2.077829 12.729006 0.000000
vt -0.011429 12.514331 0.000000
vt -0.097641 12.648322 0.000000
vt 1.905389 12.922983 0.000000
vt -0.194246 12.775024 0.000000
vt 1.709282 13.092997 0.000000
vt 1.492809 13.236183 0.000000
vt -0.300630 12.893635 0.000000
vt 1.259616 13.350131 0.000000
vt 1.013631 13.432921 0.000000
vt 0.758997 13.483159 0.000000
vt 0.500000 13.500000 0.000000
vt -0.200000 2.077807 0.000000
vt -0.200000 1.918435 0.000000
vt 1.100000 2.077807 0.000000
vt 1.100000 1.818082 0.000000
vt -0.200000 1.759063 0.000000
vt 1.100000 1.558356 0.000000
vt -0.200000 1.599691 0.000000
vt -1.600000 1.599691 0.000000
vt -1.600000 1.349744 0.000000
vt 1.100000 1.298630 0.000000
vt -1.600000 1.099798 0.000000
vt 1.100000 1.038904 0.000000
vt -1.600000 0.849852 0.000000
vt 1.100000 0.779178 0.000000
vt -1.600000 0.599906 0.000000
vt 1.100000 0.519452 0.000000
vt -1.600000 0.349960 0.000000
vt 1.100000 0.259726 0.000000
vt -1.600000 0.100013 0.000000
vt 1.100000 0.000000 0.000000
vt -1.589482 0.066676 0.000000
vt -1.578957 0.033338 0.000000
vt -1.568430 0.000000 0.000000
vt -2.723698 0.381988 0.000000
vt -2.577829 0.167313 0.000000
vt 0.696374 0.381988 0.000000
vt 0.848690 0.188572 0.000000
vt -2.405389 -0.026665 0.000000
vt 1.025973 0.017750 0.000000
vt -2.209282 -0.196678 0.000000
vt 1.224907 -0.127284 0.000000
vt -1.992809 -0.339864 0.000000
vt -1.759616 -0.453812 0.000000
vt -1.000000 -0.603682 0.000000
vt -1.513631 -0.536602 0.000000
vt -1.258997 -0.586841 0.000000
vt 1.441771 -0.243817 0.000000
vt 1.000000 -0.603682 0.000000
vt 1.672507 -0.329668 0.000000
vt 1.469522 -0.547788 0.000000
vt 1.696041 -0.478655 0.000000
vt 1.236418 -0.589659 0.000000
vt 1.912800 -0.383231 0.000000
vt 1.468218 -12.514331 0.000000
vt -0.490634 -12.514331 0.000000
vt 1.322350 -12.729006 0.000000
vt 1.149910 -12.922983 0.000000
vt 0.953802 -13.092997 0.000000
vt 0.737330 -13.236183 0.000000
vt -0.490634 -13.321903 0.000000
vt 0.504137 -13.350131 0.000000
vt 0.258152 -13.432921 0.000000
vt 0.003517 -13.483159 0.000000
vt -0.255479 -13.500000 0.000000
vt -0.100000 -1.749887 0.000000
vt -0.100000 -1.503504 0.000000
vt -1.200000 -1.749887 0.000000
vt -1.200000 -1.499903 0.000000
vt -0.100000 -1.257121 0.000000
vt -1.200000 -1.249919 0.000000
vt -0.100000 -1.010739 0.000000
vt -1.200000 -0.999935 0.000000
vt -0.100000 -0.764356 0.000000
vt -1.200000 -0.749951 0.000000
vt -0.100000 -0.517974 0.000000
vt -1.200000 -0.499968 0.000000
vt -0.100000 -0.271591 0.000000
vt -1.200000 -0.249984 0.000000
vt 1.000000 -0.271591 0.000000
vt 1.000000 -0.181061 0.000000
vt 1.000000 -0.090530 0.000000
vt -1.200000 -0.000000 0.000000
vt 1.000000 -0.000000 0.000000
vt 2.986988 12.514331 0.000000
vt 2.832253 12.710414 0.000000
vt -1.663787 12.514331 0.000000
vt 2.651863 12.883189 0.000000
vt 2.449293 13.029328 0.000000
vt -0.274345 13.300000 0.000000
vt 2.228442 13.146017 0.000000
vt 1.993564 13.231010 0.000000
vt 1.749181 13.282669 0.000000
vt 1.500000 13.300000 0.000000
vt 1.596191 1.200000 0.000000
vt 0.000000 1.200000 0.000000
vt 1.596191 -0.564067 0.000000
vt 0.010326 -1.000000 0.000000
vt 0.000000 -1.000000 0.000000
vt -2.324567 12.514331 0.000000
vt -0.876917 12.514331 0.000000
vt -2.324567 13.294917 0.000000
vt 0.180393 -12.514331 0.000000
vt -1.062605 -12.514331 0.000000
vt 0.305752 -12.702212 0.000000
vt -1.062605 -13.294917 0.000000
vt 0.451495 -12.874761 0.000000
vt 0.615764 -13.029777 0.000000
vt -1.053616 -13.300000 0.000000
vt 0.720729 -13.300000 0.000000
vt 0.796464 -13.165282 0.000000
vt 0.811221 -13.297724 0.000000
vt 0.901484 -13.290901 0.000000
vt 0.991290 -13.279549 0.000000
vt -4.757359 0.000000 0.000000
vt -0.106585 0.000000 0.000000
vt -4.757359 1.100000 0.000000
vt -0.106585 1.764067 0.000000
vt -1.487038 2.200000 0.000000
vt -2.730035 2.200000 0.000000
vt -8.177430 2.400000 0.000000
vt -8.177430 1.100000 0.000000
vt -2.730035 2.592526 0.000000
vt -6.553705 3.800000 0.000000
vt -7.387404 3.800000 0.000000
vt -7.387404 4.063274 0.000000
vt -8.453705 4.400000 0.000000
vt -10.412557 2.400000 0.000000
vt -10.412557 4.400000 0.000000
vn -0.861849 0.507165 -0.000000
vn -0.861849 0.507165 -0.000000
vn -0.788915 0.614503 -0.000000
vn -0.788915 0.614503 -0.000000
vn -0.702695 0.711492 -0.000000
vn -0.702695 0.711492 -0.000000
vn -0.604641 0.796498 -0.000000
vn -0.604641 0.796498 -0.000000
vn -0.496404 0.868091 -0.000000
vn -0.496404 0.868091 -0.000000
vn -0.379808 0.925065 -0.000000
vn -0.379808 0.925065 -0.000000
vn -0.256816 0.966460 -0.000000
vn -0.256816 0.966460 -0.000000
vn -0.129498 0.991580 -0.000000
vn -0.129498 0.991580 -0.000000
vn -0.000000 1.000000 0.000000
vn -0.000000 1.000000 0.000000
vn 0.000000 1.000000 -0.000000
vn 0.000000 1.000000 -0.000000
vn 0.000000 1.000000 -0.000000
vn 0.000000 1.000000 -0.000000
vn 0.000000 0.000000 1.000000
vn 0.000000 0.000000 1.000000
vn 0.000000 0.000000 1.000000
vn 0.000000 0.000000 1.000000
vn 0.000000 0.000000 1.000000
vn 0.000000 0.000000 1.000000
vn 0.000000 0.000000 1.000000
vn 0.000000 0.000000 1.000000
vn 0.000000 0.000000 1.000000
vn 0.603748 0.797175 0.000000
vn 0.603748 0.797175 0.000000
vn 0.603748 0.797175 0.000000
vn 0.603748 0.797175 0.000000
vn 0.603748 0.797175 0.000000
vn 0.603748 0.797175 0.000000
vn 0.603748 0.797175 0.000000
vn 0.301131 -0.000000 0.953583
vn 0.301131 -0.000000 0.953583
vn 0.301131 -0.000000 0.953583
vn 0.301131 -0.000000 0.953583
vn 0.301131 -0.000000 0.953583
vn 0.301131 -0.000000 0.953583
vn 0.301131 -0.000000 0.953583
vn 0.301131 -0.000000 0.953583
vn 0.301131 -0.000000 0.953583
vn 0.301131 -0.000000 0.953583
vn 0.301131 -0.000000 0.953583
vn 0.301131 -0.000000 0.953583
vn 0.301131 -0.000000 0.953583
vn 0.301131 -0.000000 0.953583
vn 0.301131 -0.000000 0.953583
vn 0.301131 -0.000000 0.953583
vn 0.301131 -0.000000 0.953583
vn 0.000000 1.000000 0.000000
vn 0.000000 1.000000 0.000000
vn 0.000000 1.000000 0.000000
vn 0.000000 1.000000 0.000000
vn 0.861849 0.507165 -0.000000
vn 0.799169 0.601106 -0.000000
vn 0.861849 0.507165 -0.000000
vn 0.788915 0.614503 -0.000000
vn 0.726298 0.687380 -0.000000
vn 0.702695 0.711492 -0.000000
vn 0.644163 0.764888 -0.000000
vn 0.604641 0.796498 -0.000000
vn 0.553813 0.832641 -0.000000
vn 0.496404 0.868091 -0.000000
vn 0.456400 0.889775 -0.000000
vn 0.379808 0.925065 -0.000000
vn 0.456400 0.889775 -0.000000
vn 0.348020 0.937487 -0.000000
vn 0.256816 0.966460 -0.000000
vn 0.234761 0.972053 -0.000000
vn 0.129498 0.991580 -0.000000
vn 0.118209 0.992989 -0.000000
vn -0.000000 -0.000000 -1.000000
vn -0.000000 -0.000000 -1.000000
vn -0.000000 -0.000000 -1.000000
vn -0.000000 -0.000000 -1.000000
vn -0.000000 -0.000000 -1.000000
vn -0.000000 -0.000000 -1.000000
vn -0.000000 -0.000000 -1.000000
vn -0.000000 -0.000000 -1.000000
vn -0.000000 -0.000000 -1.000000
vn -0.000000 -0.000000 -1.000000
vn -0.000000 -0.000000 -1.000000
vn -0.000000 -0.000000 -1.000000
vn -0.000000 -0.000000 -1.000000
vn -0.861849 0.507165 -0.000000
vn -0.818743 0.574161 -0.000000
vn -0.861849 0.507165 -0.000000
vn -0.788915 0.614503 -0.000000
vn -0.770440 0.637512 -0.000000
vn -0.702695 0.711492 -0.000000
vn -0.717248 0.696818 -0.000000
vn -0.717248 0.696818 -0.000000
vn -0.624798 0.780787 -0.000000
vn -0.604641 0.796498 -0.000000
vn -0.522601 0.852577 -0.000000
vn -0.496404 0.868091 -0.000000
vn -0.412253 0.911069 -0.000000
vn -0.379808 0.925065 -0.000000
vn -0.295475 0.955350 -0.000000
vn -0.256816 0.966460 -0.000000
vn -0.174088 0.984730 -0.000000
vn -0.129498 0.991580 -0.000000
vn -0.049986 0.998750 -0.000000
vn -0.033332 0.999444 -0.000000
vn -0.016668 0.999861 -0.000000
vn -0.000000 -0.000000 -1.000000
vn -0.000000 -0.000000 -1.000000
vn -0.000000 -0.000000 -1.000000
vn -0.000000 -0.000000 -1.000000
vn -0.000000 -0.000000 -1.000000
vn -0.000000 -0.000000 -1.000000
vn -0.000000 -0.000000 -1.000000
vn -0.000000 -0.000000 -1.000000
vn -0.000000 -0.000000 -1.000000
vn -0.000000 -0.000000 -1.000000
vn -0.000000 -0.000000 -1.000000
vn -0.000000 -0.000000 -1.000000
vn -0.000000 -0.000000 -1.000000
vn -0.000000 -0.000000 -1.000000
vn -0.000000 -0.000000 -1.000000
vn -0.000000 -0.000000 -1.000000
vn -0.000000 -0.000000 -1.000000
vn -0.000000 -0.000000 -1.000000
vn -0.000000 -0.000000 -1.000000
vn -0.000000 -0.000000 -1.000000
vn 0.000000 0.000000 1.000000
vn 0.000000 0.000000 1.000000
vn 0.000000 0.000000 1.000000
vn 0.000000 0.000000 1.000000
vn 0.000000 0.000000 1.000000
vn 0.000000 0.000000 1.000000
vn 0.000000 0.000000 1.000000
vn 0.000000 0.000000 1.000000
vn 0.000000 0.000000 1.000000
vn 0.000000 0.000000 1.000000
vn 0.000000 0.000000 1.000000
vn -0.826104 0.563517 -0.000000
vn -0.741484 0.670970 -0.000000
vn -0.826104 0.563517 -0.000000
vn -0.740141 0.672452 -0.000000
vn -0.642994 0.765871 -0.000000
vn -0.639924 0.768438 -0.000000
vn -0.532475 0.846446 -0.000000
vn -0.527385 0.849627 -0.000000
vn -0.411995 0.911186 -0.000000
vn -0.404690 0.914454 -0.000000
vn -0.283808 0.958881 -0.000000
vn -0.274202 0.961672 -0.000000
vn -0.150312 0.988639 -0.000000
vn -0.138434 0.990372 -0.000000
vn -0.150312 0.988639 -0.000000
vn -0.100420 0.994945 -0.000000
vn -0.050273 0.998735 -0.000000
vn -0.000000 -0.000000 -1.000000
vn -0.000000 -0.000000 -1.000000
vn -0.000000 -0.000000 -1.000000
vn -0.000000 -0.000000 -1.000000
vn -0.000000 -0.000000 -1.000000
vn -0.000000 -0.000000 -1.000000
vn -0.000000 -0.000000 -1.000000
vn -0.000000 -0.000000 -1.000000
vn -0.000000 -0.000000 -1.000000
vn -0.000000 -0.000000 -1.000000
vn 0.492215 0.870474 0.000000
vn 0.492215 0.870474 0.000000
vn 0.492215 0.870474 0.000000
vn 0.492215 0.870474 0.000000
vn 0.492215 0.870474 0.000000
vn 0.301131 -0.000000 0.953583
vn 0.301131 -0.000000 0.953583
vn 0.301131 -0.000000 0.953583
vn 0.000000 0.000000 1.000000
vn 0.000000 0.000000 1.000000
vn 0.000000 0.000000 1.000000
vn 0.000000 0.000000 1.000000
vn 0.000000 0.000000 1.000000
vn 0.000000 0.000000 1.000000
vn 0.000000 0.000000 1.000000
vn 0.000000 0.000000 1.000000
vn 0.000000 0.000000 1.000000
vn 0.000000 0.000000 1.000000
vn 0.000000 0.000000 1.000000
vn 0.000000 0.000000 1.000000
vn -0.000000 -1.000000 0.000000
vn -0.000000 -1.000000 0.000000
vn -0.000000 -1.000000 0.000000
vn -0.000000 -1.000000 0.000000
vn -0.000000 -1.000000 0.000000
vn -0.000000 -1.000000 0.000000
vn -0.000000 -1.000000 0.000000
vn -0.000000 -1.000000 0.000000
vn -0.000000 -1.000000 0.000000
vn -0.000000 -1.000000 0.000000
vn -0.000000 -1.000000 0.000000
vn -0.000000 -1.000000 0.000000
vn -0.000000 -1.000000 0.000000
vn -0.000000 -1.000000 0.000000
vn -0.000000 -1.000000 0.000000
usemtl Steel_-_Satin
f 1/1/1 2/2/2 18/3/3
f 18/3/3 2/2/2 3/4/4
f 18/3/3 3/4/4 17/5/5
f 17/5/5 3/4/4 4/6/6
f 17/5/5 4/6/6 16/7/7
f 16/7/7 4/6/6 5/8/8
f 16/7/7 5/8/8 15/9/9
f 15/9/9 5/8/8 6/10/10
f 15/9/9 6/10/10 14/11/11
f 14/11/11 6/10/10 7/12/12
f 14/11/11 7/12/12 13/13/13
f 13/13/13 7/12/12 8/14/14
f 13/13/13 8/14/14 12/15/15
f 12/15/15 8/14/14 9/16/16
f 12/15/15 9/16/16 11/17/17
f 11/17/17 9/16/16 10/18/18
f 19/19/19 20/20/20 22/21/21
f 22/21/21 20/20/20 21/22/22
f 24/23/23 28/24/24 23/25/25
f 23/25/25 28/24/24 29/26/26
f 23/25/25 29/26/26 30/27/27
f 25/28/28 26/29/29 24/23/23
f 24/23/23 26/29/29 27/30/30
f 24/23/23 27/30/30 28/24/24
f 30/27/27 31/31/31 23/25/25
f 23/32/32 31/33/33 32/34/34
f 32/34/34 31/33/33 34/35/35
f 34/35/35 31/33/33 11/36/36
f 34/35/35 11/36/36 10/37/37
f 31/33/33 33/38/38 11/36/36
f 35/39/39 36/40/40 24/41/41
f 24/41/41 36/40/40 37/42/42
f 24/41/41 37/42/42 38/43/43
f 38/43/43 39/44/44 24/41/41
f 24/41/41 39/44/44 20/45/45
f 24/41/41 20/45/45 19/46/46
f 39/44/44 40/47/47 20/45/45
f 20/45/45 40/47/47 41/48/48
f 20/45/45 41/48/48 42/49/49
f 43/50/50 44/51/51 19/46/46
f 19/46/46 44/51/51 25/52/52
f 19/46/46 25/52/52 24/41/41
f 45/53/53 32/54/54 34/55/55
f 47/56/56 48/57/57 46/58/58
f 46/58/58 48/57/57 49/59/59
f 50/60/60 51/61/61 35/62/62
f 35/62/62 51/61/61 36/63/63
f 36/63/63 51/61/61 52/64/64
f 36/63/63 52/64/64 37/65/65
f 37/65/65 52/64/64 53/66/66
f 37/65/65 53/66/66 38/67/67
f 38/67/67 53/66/66 54/68/68
f 38/67/67 54/68/68 39/69/69
f 39/69/69 54/68/68 55/70/70
f 39/69/69 55/70/70 40/71/71
f 40/71/71 55/70/70 56/72/72
f 40/71/71 56/72/72 57/73/73
f 40/71/71 57/73/73 41/74/74
f 41/74/74 57/73/73 58/75/75
f 41/74/74 58/75/75 42/76/76
f 42/76/76 58/75/75 59/77/77
f 42/76/76 59/77/77 20/78/20
f 20/78/20 59/77/77 21/79/22
f 1/80/78 18/81/79 60/82/80
f 60/82/80 18/81/79 62/83/81
f 62/83/81 18/81/79 17/84/82
f 62/83/81 17/84/82 61/85/83
f 61/85/83 17/84/82 16/86/84
f 61/85/83 16/86/84 15/87/85
f 61/85/83 15/87/85 33/88/86
f 33/88/86 15/87/85 14/89/87
f 33/88/86 14/89/87 13/90/88
f 13/90/88 12/91/89 33/88/86
f 33/88/86 12/91/89 11/92/90
f 60/93/91 62/94/92 63/95/93
f 63/95/93 62/94/92 70/96/94
f 70/96/94 62/94/92 61/97/95
f 70/96/94 61/97/95 69/98/96
f 69/98/96 61/97/95 33/99/97
f 69/98/96 33/99/97 31/100/98
f 31/100/98 30/101/99 69/98/96
f 69/98/96 30/101/99 68/102/100
f 68/102/100 30/101/99 29/103/101
f 68/102/100 29/103/101 67/104/102
f 67/104/102 29/103/101 28/105/103
f 67/104/102 28/105/103 66/106/104
f 66/106/104 28/105/103 27/107/105
f 66/106/104 27/107/105 65/108/106
f 65/108/106 27/107/105 26/109/107
f 65/108/106 26/109/107 64/110/108
f 64/110/108 26/109/107 25/111/109
f 64/110/108 25/111/109 22/112/21
f 22/112/21 25/111/109 44/113/110
f 22/112/21 44/113/110 43/114/111
f 43/114/111 19/115/19 22/112/21
f 63/116/112 70/117/113 71/118/114
f 71/118/114 70/117/113 76/119/115
f 76/119/115 70/117/113 69/120/116
f 76/119/115 69/120/116 75/121/117
f 75/121/117 69/120/116 68/122/118
f 75/121/117 68/122/118 74/123/119
f 74/123/119 68/122/118 67/124/120
f 74/123/119 67/124/120 66/125/121
f 74/123/119 66/125/121 22/126/122
f 22/126/122 66/125/121 65/127/123
f 22/126/122 65/127/123 64/128/124
f 74/123/119 22/126/122 73/129/125
f 73/129/125 22/126/122 21/130/126
f 73/129/125 21/130/126 72/131/127
f 72/131/127 21/130/126 58/132/128
f 72/131/127 58/132/128 57/133/129
f 21/130/126 59/134/130 58/132/128
f 57/133/129 56/135/131 72/131/127
f 2/136/132 45/137/133 3/138/134
f 3/138/134 45/137/133 4/139/135
f 4/139/135 45/137/133 5/140/136
f 5/140/136 45/137/133 6/141/137
f 6/141/137 45/137/133 34/142/138
f 6/141/137 34/142/138 7/143/139
f 7/143/139 34/142/138 8/144/140
f 8/144/140 34/142/138 9/145/141
f 9/145/141 34/142/138 10/146/142
f 71/147/143 76/148/144 77/149/145
f 77/149/145 76/148/144 85/150/146
f 85/150/146 76/148/144 75/151/147
f 85/150/146 75/151/147 84/152/148
f 84/152/148 75/151/147 74/153/149
f 84/152/148 74/153/149 83/154/150
f 83/154/150 74/153/149 73/155/151
f 83/154/150 73/155/151 82/156/152
f 82/156/152 73/155/151 72/157/153
f 82/156/152 72/157/153 81/158/154
f 81/158/154 72/157/153 56/159/155
f 81/158/154 56/159/155 80/160/156
f 80/160/156 56/159/155 55/161/157
f 80/160/156 55/161/157 78/162/158
f 78/162/158 79/163/159 80/160/156
f 80/160/156 79/163/159 48/164/57
f 48/164/57 79/163/159 49/165/59
f 77/166/160 85/167/161 86/168/162
f 86/168/162 85/167/161 84/169/163
f 86/168/162 84/169/163 83/170/164
f 86/168/162 83/170/164 47/171/165
f 47/171/165 83/170/164 82/172/166
f 47/171/165 82/172/166 81/173/167
f 80/174/168 48/175/169 81/173/167
f 81/173/167 48/175/169 47/171/165
f 86/176/170 47/177/171 87/178/172
f 87/178/172 47/177/171 88/179/173
f 88/179/173 47/177/171 46/180/174
f 89/181/175 87/182/176 88/183/177
f 50/184/178 89/185/179 51/186/180
f 51/186/180 89/185/179 88/187/181
f 51/186/180 88/187/181 52/188/182
f 52/188/182 88/187/181 53/189/183
f 53/189/183 88/187/181 46/190/184
f 53/189/183 46/190/184 49/191/185
f 53/189/183 49/191/185 54/192/186
f 54/192/186 49/191/185 79/193/187
f 54/192/186 79/193/187 78/194/188
f 78/194/188 55/195/189 54/192/186
f 77/196/190 86/197/191 71/198/192
f 71/198/192 86/197/191 87/199/193
f 71/198/192 87/199/193 89/200/194
f 89/200/194 50/201/195 71/198/192
f 71/198/192 50/201/195 60/202/196
f 71/198/192 60/202/196 63/203/197
f 50/201/195 35/204/198 60/202/196
f 60/202/196 35/204/198 24/205/199
f 60/202/196 24/205/199 23/206/200
f 32/207/201 45/208/202 23/206/200
f 23/206/200 45/208/202 1/209/203
f 23/206/200 1/209/203 60/202/196
f 45/208/202 2/210/204 1/209/203
# 89 vertices
# 210 texture params
# 204 normals
# 174 facets

# 1 groups
